<svg width="12" height="16" viewBox="0 0 12 16" fill="none" xmlns="http://www.w3.org/2000/svg">
<path fill-rule="evenodd" clip-rule="evenodd" d="M3.675 0.5H8.3025C10.335 0.5 11.9775 1.3025 12 3.3425V14.7275C12 14.855 11.97 14.9825 11.91 15.095C11.8125 15.275 11.6475 15.41 11.445 15.47C11.25 15.53 11.0325 15.5 10.8525 15.395L5.9925 12.965L1.125 15.395C1.01325 15.4542 0.885 15.4925 0.7575 15.4925C0.3375 15.4925 0 15.1475 0 14.7275V3.3425C0 1.3025 1.65 0.5 3.675 0.5ZM3.165 6.215H8.8125C9.135 6.215 9.3975 5.95175 9.3975 5.6225C9.3975 5.2925 9.135 5.03 8.8125 5.03H3.165C2.8425 5.03 2.58 5.2925 2.58 5.6225C2.58 5.95175 2.8425 6.215 3.165 6.215Z" fill="#906FD9"/>
</svg>
