<svg width="20" height="20" viewBox="0 0 20 20" fill="none" xmlns="http://www.w3.org/2000/svg">
<path d="M5.91988 0H2.53988C1.13988 0 -0.00012207 1.15 -0.00012207 2.561V5.97C-0.00012207 7.39 1.13988 8.53 2.53988 8.53H5.91988C7.32988 8.53 8.45988 7.39 8.45988 5.97V2.561C8.45988 1.15 7.32988 0 5.91988 0Z" fill="#906FD9"/>
<path d="M5.91988 11.4697H2.53988C1.13988 11.4697 -0.00012207 12.6107 -0.00012207 14.0307V17.4397C-0.00012207 18.8497 1.13988 19.9997 2.53988 19.9997H5.91988C7.32988 19.9997 8.45988 18.8497 8.45988 17.4397V14.0307C8.45988 12.6107 7.32988 11.4697 5.91988 11.4697Z" fill="#906FD9"/>
<path d="M17.46 0H14.08C12.67 0 11.54 1.15 11.54 2.561V5.97C11.54 7.39 12.67 8.53 14.08 8.53H17.46C18.86 8.53 20 7.39 20 5.97V2.561C20 1.15 18.86 0 17.46 0Z" fill="#B198E7"/>
<path d="M17.46 11.4697H14.08C12.67 11.4697 11.54 12.6107 11.54 14.0307V17.4397C11.54 18.8497 12.67 19.9997 14.08 19.9997H17.46C18.86 19.9997 20 18.8497 20 17.4397V14.0307C20 12.6107 18.86 11.4697 17.46 11.4697Z" fill="#906FD9"/>
</svg>
