<svg width="14" height="16" viewBox="0 0 14 16" fill="none" xmlns="http://www.w3.org/2000/svg">
<path fill-rule="evenodd" clip-rule="evenodd" d="M13.3608 3.21708C13.649 3.21708 13.8889 3.45634 13.8889 3.76078V4.04226C13.8889 4.33929 13.649 4.58595 13.3608 4.58595H1.08435C0.795469 4.58595 0.555573 4.33929 0.555573 4.04226V3.76078C0.555573 3.45634 0.795469 3.21708 1.08435 3.21708H3.24414C3.68287 3.21708 4.06469 2.90523 4.16338 2.46523L4.27649 1.96005C4.45227 1.27191 5.03075 0.81488 5.69281 0.81488H8.75167C9.40652 0.81488 9.99149 1.27191 10.1608 1.92376L10.2818 2.46449C10.3798 2.90523 10.7616 3.21708 11.2011 3.21708H13.3608ZM12.2636 13.5068C12.4891 11.4053 12.8839 6.41275 12.8839 6.36238C12.8983 6.20979 12.8486 6.06535 12.7499 5.94905C12.644 5.84016 12.51 5.77572 12.3623 5.77572H2.08781C1.93941 5.77572 1.79821 5.84016 1.70023 5.94905C1.60081 6.06535 1.55183 6.20979 1.55903 6.36238C1.56035 6.37163 1.57452 6.54749 1.5982 6.8415C1.70341 8.14761 1.99644 11.7854 2.18579 13.5068C2.31978 14.7749 3.15186 15.5719 4.3571 15.6008C5.28715 15.6223 6.24529 15.6297 7.22505 15.6297C8.14789 15.6297 9.08515 15.6223 10.044 15.6008C11.291 15.5793 12.1224 14.7964 12.2636 13.5068Z" fill="url(#paint0_linear)"/>
<defs>
<linearGradient id="paint0_linear" x1="0.555572" y1="8.22229" x2="13.8889" y2="8.22229" gradientUnits="userSpaceOnUse">
<stop stop-color="#906FD9" stop-opacity="0.36"/>
<stop offset="1" stop-color="#B29AE9" stop-opacity="0.44"/>
</linearGradient>
</defs>
</svg>
