<svg width="19" height="20" viewBox="0 0 19 20" fill="none" xmlns="http://www.w3.org/2000/svg">
<path fill-rule="evenodd" clip-rule="evenodd" d="M11.8645 10.6959C12.2599 10.6959 12.5726 10.3886 12.5726 10C12.5726 9.62042 12.2599 9.30411 11.8645 9.30411L6.34744 9.30411L6.34743 4.98416C6.34743 2.76996 8.17728 0.962455 10.4393 0.962455L14.9173 0.962454C17.1702 0.962454 19 2.76093 19 4.97512L19 15.0158C19 17.2391 17.161 19.0375 14.9081 19.0375L10.4209 19.0375C8.17728 19.0375 6.34744 17.2391 6.34744 15.0249L6.34744 10.6959L11.8645 10.6959ZM3.06661 13.1268L0.42765 10.4969C0.292087 10.3613 0.219787 10.1896 0.219787 9.99983C0.219787 9.81907 0.292087 9.63832 0.42765 9.5118L3.06661 6.88187C3.20218 6.74631 3.38293 6.67401 3.55464 6.67401C3.73539 6.67401 3.91614 6.74631 4.05171 6.88187C4.32283 7.153 4.32283 7.59584 4.05171 7.86696L2.6057 9.30393L6.34724 9.30393L6.34724 10.6957L2.6057 10.6957L4.05171 12.1327C4.32283 12.4038 4.32283 12.8467 4.05171 13.1178C3.78058 13.3979 3.33774 13.3979 3.06661 13.1268Z" fill="#906FD9"/>
</svg>
