<svg width="62" height="31" viewBox="0 0 62 31" fill="none" xmlns="http://www.w3.org/2000/svg">
<g clip-path="url(#clip0)">
<path d="M58 0H34.9495C32.7404 0 30.9495 1.79086 30.9495 4V27C30.9495 29.2091 32.7404 31 34.9495 31H58C60.2091 31 62 29.2091 62 27V4C62 1.79086 60.2091 0 58 0Z" fill="#906FD9"/>
<path d="M8.42729 15.8863C8.42729 16.4068 8.37683 16.9442 8.25909 17.532C8.14135 18.1029 7.9395 18.6403 7.63673 19.1273C7.33397 19.6143 6.89664 20.0341 6.34156 20.3532C5.78649 20.6723 5.06321 20.8402 4.18855 20.8402C3.04476 20.8402 2.11964 20.5547 1.43 19.9838C0.740367 19.4128 0.269396 18.6571 0.0170898 17.7335L2.33831 17.0786C2.45605 17.5488 2.67471 17.9182 2.9943 18.1869C3.31389 18.4556 3.70076 18.5899 4.13809 18.5899C4.49132 18.5899 4.79409 18.5228 5.02957 18.3884C5.26506 18.2541 5.45008 18.0694 5.56782 17.8175C5.70239 17.5656 5.78649 17.2801 5.83695 16.9442C5.88741 16.6084 5.92105 16.2389 5.92105 15.8359V6.31421H8.44411L8.42729 15.8863Z" fill="#906FD9"/>
<path d="M20.1845 13.552C19.949 12.8971 19.6294 12.3597 19.2089 11.9231C18.7884 11.4865 18.3006 11.1506 17.7287 10.9323C17.1568 10.714 16.5344 10.5964 15.8616 10.5964C15.1384 10.5964 14.4655 10.714 13.8432 10.9659C13.2208 11.2178 12.6826 11.5704 12.2116 12.0071C11.7575 12.4605 11.3874 12.9978 11.1351 13.636C10.866 14.2741 10.7482 14.9794 10.7482 15.7519C10.7482 16.5412 10.8828 17.2465 11.1351 17.8678C11.4042 18.4892 11.7575 19.0266 12.2284 19.4464C12.6994 19.883 13.2376 20.2021 13.8768 20.4372C14.516 20.6723 15.2056 20.7898 15.9457 20.7898C17.7623 20.7898 19.1416 20.1517 20.1004 18.8586C20.1172 18.8418 20.1172 18.825 20.134 18.8082C19.3939 18.6067 18.6538 18.3884 17.8969 18.1869C17.8128 18.2709 17.6614 18.3716 17.4596 18.4892C16.8204 18.825 16.2149 18.825 15.9289 18.825C15.5757 18.825 15.2393 18.7579 14.9197 18.6403C14.6001 18.5228 14.3142 18.3548 14.045 18.1533C13.7927 17.9518 13.5909 17.6999 13.4227 17.4144C13.2713 17.1289 13.1704 16.8099 13.1535 16.4572H20.5209C20.5377 16.3565 20.5377 16.2389 20.5377 16.1381C20.5377 16.0374 20.5377 15.9198 20.5377 15.8191C20.5377 14.9626 20.42 14.2069 20.1845 13.552ZM13.1535 14.61C13.204 14.0054 13.49 13.5016 13.9946 13.1154C14.4992 12.7292 15.1215 12.5276 15.8448 12.5276C16.2317 12.5276 16.5681 12.578 16.8709 12.6956C17.1568 12.8131 17.3923 12.9643 17.5941 13.149C17.7792 13.3337 17.9137 13.5688 18.0146 13.8207C18.0987 14.0726 18.1492 14.3413 18.1492 14.61H13.1535Z" fill="#906FD9"/>
<path d="M25.1633 13.2161C25.1633 13.1826 25.1633 13.1658 25.1633 13.1322C25.1633 12.9139 25.1633 12.6788 25.1633 12.4605H27.4509V10.5796H25.1633V8.66522H22.8757V10.5796H21.2105V12.4437H22.8757C22.8757 12.6956 22.8757 12.9475 22.8757 13.1826V17.5152C22.8757 17.9686 22.9094 18.3884 22.9935 18.7746C23.0776 19.1609 23.229 19.5135 23.4644 19.8158C23.6831 20.1181 24.0027 20.3532 24.3896 20.5379C24.7764 20.7059 25.281 20.8066 25.9034 20.8066C26.0211 20.8066 26.3239 20.8066 26.7108 20.7394C26.9967 20.6891 27.249 20.6219 27.4509 20.5547C27.4509 19.9166 27.4509 19.2784 27.4509 18.6403C27.3163 18.6907 27.1313 18.7411 26.9126 18.7746C26.8117 18.7914 26.6435 18.825 26.4753 18.825C26.2734 18.825 25.8866 18.8418 25.6175 18.6571C25.1128 18.338 25.1633 17.5488 25.1633 17.4984V13.2161Z" fill="#906FD9"/>
<path d="M40.1167 18.4388C39.6289 18.4388 39.1579 18.4556 38.6028 18.2037C38.4346 18.1365 37.9805 17.9182 37.6272 17.4816C37.5431 17.3808 37.4759 17.2633 37.459 17.2297C37.3077 16.9778 37.1899 16.6923 37.1058 16.39C37.0049 15.987 36.9376 15.5672 36.9376 15.1642V6.31421H34.4146V15.2649C34.4146 16.1214 34.5659 16.8938 34.8519 17.5656C35.1378 18.2541 35.5415 18.8418 36.0461 19.312C36.5676 19.799 37.1563 20.1685 37.8627 20.4204C38.5524 20.6723 39.3093 20.8066 40.1167 20.8066C40.924 20.8066 41.681 20.6723 42.3706 20.4204C43.0602 20.1685 43.6658 19.799 44.1872 19.312C44.7086 18.825 45.0955 18.2541 45.3815 17.5656C45.6674 16.877 45.8188 16.1046 45.8188 15.2649V6.31421H43.2957V15.1642C43.2957 15.584 43.2453 15.987 43.1275 16.39C43.0434 16.6923 42.9257 16.9778 42.7743 17.2297C42.7575 17.2633 42.6902 17.3808 42.6061 17.4816C42.2529 17.9182 41.7987 18.1365 41.6305 18.2037C41.0922 18.4556 40.6213 18.4388 40.1167 18.4388Z" fill="white"/>
<path d="M50.4612 10.5964C50.4612 11.0331 50.4612 11.4529 50.4612 11.8895C50.5958 11.772 50.7472 11.6208 50.949 11.4697C51.2181 11.2682 51.4536 11.1338 51.5882 11.0667C52.0423 10.8315 52.4292 10.7308 52.6142 10.6972C53.2534 10.5629 53.758 10.5964 54.0272 10.6132C54.8345 10.6804 55.4232 10.9155 55.726 11.0667C56.2811 11.3185 56.6343 11.604 56.7521 11.7048C56.9203 11.8391 57.0716 11.9903 57.2062 12.1414C57.6267 12.5948 57.9463 13.1322 58.165 13.7367C58.3836 14.3413 58.5014 15.013 58.5014 15.7183C58.5014 16.4236 58.3836 17.0954 58.165 17.6999C57.9463 18.3213 57.6267 18.8586 57.223 19.312C56.8193 19.7655 56.3147 20.1349 55.7428 20.4036C54.9018 20.8066 54.1281 20.8066 53.7748 20.8066C53.4384 20.8066 52.6983 20.8066 51.8573 20.454C51.2686 20.2021 50.8313 19.883 50.5622 19.6479C50.5622 21.5455 50.5621 23.4431 50.5453 25.324H48.14C48.14 20.4036 48.14 15.4832 48.14 10.5797C48.9306 10.5964 49.6875 10.5964 50.4612 10.5964ZM56.4997 15.7183C56.4997 15.3489 56.4493 14.9794 56.3315 14.61C56.2138 14.2405 56.0456 13.9215 55.8101 13.6192C55.5746 13.3337 55.2887 13.0818 54.9186 12.9139C54.5654 12.7292 54.1449 12.6452 53.6739 12.6452C53.2198 12.6452 52.8161 12.746 52.4629 12.9307C52.1096 13.1154 51.8069 13.3505 51.5546 13.6528C51.3022 13.9383 51.1172 14.2741 50.9827 14.6436C50.8481 15.013 50.7808 15.3825 50.7808 15.7687C50.7808 16.1382 50.8481 16.5076 50.9827 16.8771C51.1172 17.2465 51.3022 17.5656 51.5546 17.8678C51.8069 18.1533 52.1096 18.4052 52.4629 18.5732C52.8161 18.7579 53.2198 18.8418 53.6739 18.8418C54.1449 18.8418 54.5654 18.7411 54.9186 18.5564C55.2719 18.3716 55.5746 18.1365 55.8101 17.8343C56.0456 17.5488 56.2138 17.2129 56.3315 16.8435C56.4325 16.474 56.4997 16.0878 56.4997 15.7183Z" fill="white"/>
<path d="M58.5013 6.31421H48.1568V8.61486H58.5013V6.31421Z" fill="white"/>
</g>
<defs>
<clipPath id="clip0">
<rect width="62" height="31" fill="white"/>
</clipPath>
</defs>
</svg>
